<?xml version="1.0" standalone="yes"?>

<svg version="1.1" viewBox="0.0 0.0 573.0 548.0" fill="none" stroke="none" stroke-linecap="square" stroke-miterlimit="10" xmlns="http://www.w3.org/2000/svg" xmlns:xlink="http://www.w3.org/1999/xlink"><clipPath id="p.0"><path d="m0 0l573.0 0l0 548.0l-573.0 0l0 -548.0z" clip-rule="nonzero"></path></clipPath><g clip-path="url(#p.0)"><path fill="#000000" fill-opacity="0.0" d="m0 0l573.0 0l0 548.0l-573.0 0z" fill-rule="evenodd"></path><path fill="#ffffff" d="m52.122047 64.42126l324.50394 0l0 36.0l-324.50394 0z" fill-rule="evenodd"></path><path fill="#ffffff" d="m232.37401 97.96982l0 250.74014l-36.0 0l0 -250.74014z" fill-rule="evenodd"></path><path fill="#ffffff" d="m52.122047 314.96457l180.25195 0l0 36.0l-180.25195 0z" fill-rule="evenodd"></path><path fill="#ffffff" d="m88.12205 239.70473l0 109.574814l-36.0 0l0 -109.574814z" fill-rule="evenodd"></path><path fill="#ffffff" d="m196.37401 205.33989l324.5039 0l0 36.0l-324.5039 0z" fill-rule="evenodd"></path><path fill="#ffffff" d="m371.96457 227.70473l0 255.87401l-36.0 0l0 -255.87401z" fill-rule="evenodd"></path></g></svg>

