<?xml version="1.0" standalone="yes"?>

<svg version="1.1" viewBox="0.0 0.0 500.0 500.0" fill="none" stroke="none" stroke-linecap="square" stroke-miterlimit="10" xmlns="http://www.w3.org/2000/svg" xmlns:xlink="http://www.w3.org/1999/xlink"><clipPath id="p.0"><path d="m0 0l500.0 0l0 500.0l-500.0 0l0 -500.0z" clip-rule="nonzero"></path></clipPath><g clip-path="url(#p.0)"><path fill="#000000" fill-opacity="0.0" d="m0 0l500.0 0l0 500.0l-500.0 0z" fill-rule="evenodd"></path><path fill="#ffffff" d="m48.882824 62.45386l283.14963 0l0 45.007877l-283.14963 0z" fill-rule="evenodd"></path><path fill="#ffffff" d="m53.948128 277.8254l159.02362 0l0 45.007874l-159.02362 0z" fill-rule="evenodd"></path><path fill="#ffffff" d="m212.96982 97.52493l0 224.8819l-45.007874 0l0 -224.8819z" fill-rule="evenodd"></path><path fill="#ffffff" d="m332.04462 217.60892l0 219.93701l-45.007874 0l0 -219.93701z" fill-rule="evenodd"></path><path fill="#ffffff" d="m93.891075 224.18636l0 98.645676l-45.007874 0l0 -98.645676z" fill-rule="evenodd"></path><path fill="#ffffff" d="m167.96681 179.17827l283.1496 0l0 45.007874l-283.1496 0z" fill-rule="evenodd"></path></g></svg>

