<?xml version="1.0" standalone="no"?>
<!DOCTYPE svg PUBLIC "-//W3C//DTD SVG 20010904//EN"
 "http://www.w3.org/TR/2001/REC-SVG-20010904/DTD/svg10.dtd">
<svg version="1.0" xmlns="http://www.w3.org/2000/svg"
 width="500.000000pt" height="500.000000pt" viewBox="0 0 500.000000 500.000000"
 preserveAspectRatio="xMidYMid meet">
<metadata>
Created by potrace 1.11, written by Peter Selinger 2001-2013
</metadata>
<g transform="translate(0.000000,500.000000) scale(0.100000,-0.100000)"
fill="#000000" stroke="none">
<path d="M0 2500 l0 -2500 2500 0 2500 0 0 2500 0 2500 -2500 0 -2500 0 0
-2500z m3320 1650 l0 -230 -595 0 -595 0 0 -355 0 -355 1190 0 1190 0 0 -225
0 -225 -595 0 -595 0 0 -1070 0 -1070 -225 0 -225 0 0 1070 0 1070 -370 0
-370 0 0 -495 0 -495 -820 0 -820 0 0 495 0 495 225 0 225 0 0 -270 0 -270
370 0 370 0 0 850 0 850 -595 0 -595 0 0 230 0 230 1415 0 1415 0 0 -230z"/>
</g>
</svg>
